<svg xmlns="http://www.w3.org/2000/svg" viewBox="0 0 100 100">
  <rect width="100" height="100" fill="#1e1b4b"/>
  <path d="M50 22 C 34 22 24 34 24 52 L 24 74 C 24 78 28 80 32 80 L 68 80 C 72 80 76 78 76 74 L 76 52 C 76 34 66 22 50 22 Z" fill="#4f46e5"/>
  <circle cx="50" cy="52" r="18" fill="#f5d0c5"/>
  <path d="M34 44 Q 50 30 66 44 Q 58 40 50 40 Q 42 40 34 44 Z" fill="#312e81"/>
  <circle cx="43" cy="52" r="2" fill="#1e1b4b"/>
  <circle cx="57" cy="52" r="2" fill="#1e1b4b"/>
  <path d="M46 60 Q 50 64 54 60" stroke="#831843" stroke-width="1.5" fill="none" stroke-linecap="round"/>
  <path d="M46 38 L 50 32 L 54 38" stroke="#c7d2fe" stroke-width="1.5" fill="none" stroke-linecap="round"/>
</svg>
